<svg xmlns="http://www.w3.org/2000/svg" xml:space="preserve" style="enable-background:new 0 0 490 490" viewBox="0 0 490 490"><path d="M0 439.576h490V50.424H0v389.152zM30.625 81.049h428.75v327.902H30.625V81.049z"/><path d="m213.627 266.395-36.11-41.73L65.66 353.933h358.68L281.107 188.42l-67.48 77.975zm-42.265 56.913h-38.71l44.85-51.848 44.881 51.848h-51.021zm91.513 0-29-33.513 47.231-54.579 76.241 88.093h-94.472zM211.481 208.235c21.713 0 39.368-17.625 39.368-39.261 0-21.667-17.655-39.277-39.368-39.277s-39.368 17.609-39.368 39.277c0 21.651 17.655 39.261 39.368 39.261zm0-47.928c4.823 0 8.743 3.889 8.743 8.652 0 4.762-3.92 8.636-8.743 8.636-4.824 0-8.743-3.874-8.743-8.636 0-4.763 3.92-8.652 8.743-8.652z"/></svg>